M48
;GenerationSoftware,Autodesk,EAGLE,9.6.2*%
;CreationDate,2021-10-14T19:12:32Z*%
FMAT,2
ICI,OFF
METRIC,TZ,000.000
T3C0.381
T2C1.016
T1C3.302
%
G90
M71
T1
X28448Y48768
X152400Y100584
X2540Y22860
X2540Y2540
X22860Y22860
X22860Y2540
X28448Y22860
X28448Y2540
X48768Y22860
X48768Y2540
X54356Y22860
X54356Y2540
X74676Y22860
X74676Y2540
X80264Y22860
X80264Y2540
X100584Y22860
X100584Y2540
X106172Y22860
X106172Y2540
X126492Y22860
X126492Y2540
X132080Y22860
X132080Y2540
X152400Y22860
X152400Y2540
X2540Y48768
X2540Y28448
X22860Y48768
X22860Y28448
X74676Y74676
X28448Y28448
X48768Y48768
X48768Y28448
X54356Y48768
X54356Y28448
X74676Y48768
X74676Y28448
X80264Y48768
X80264Y28448
X100584Y48768
X100584Y28448
X106172Y48768
X106172Y28448
X126492Y48768
X126492Y28448
X132080Y48768
X132080Y28448
X152400Y48768
X152400Y28448
X2540Y74676
X2540Y54356
X22860Y74676
X22860Y54356
X28448Y74676
X28448Y54356
X48768Y74676
X48768Y54356
X54356Y74676
X54356Y54356
X152400Y80264
X74676Y54356
X80264Y74676
X80264Y54356
X100584Y74676
X100584Y54356
X106172Y74676
X106172Y54356
X126492Y74676
X126492Y54356
X132080Y74676
X132080Y54356
X152400Y74676
X152400Y54356
X2540Y100584
X2540Y80264
X22860Y100584
X22860Y80264
X28448Y100584
X28448Y80264
X48768Y100584
X48768Y80264
X54356Y100584
X54356Y80264
X74676Y100584
X74676Y80264
X80264Y100584
X80264Y80264
X100584Y100584
X100584Y80264
X106172Y100584
X106172Y80264
X126492Y100584
X126492Y80264
X132080Y100584
X132080Y80264
T2
X91694Y1270
X143510Y78994
X16510Y1270
X19050Y1270
X6350Y1270
X8890Y1270
X11430Y1270
X13970Y1270
X42418Y1270
X44958Y1270
X32258Y1270
X34798Y1270
X37338Y1270
X39878Y1270
X68326Y1270
X70866Y1270
X58166Y1270
X60706Y1270
X63246Y1270
X65786Y1270
X94234Y1270
X96774Y1270
X84074Y1270
X86614Y1270
X89154Y1270
X120142Y1270
X122682Y1270
X109982Y1270
X112522Y1270
X115062Y1270
X117602Y1270
X146050Y1270
X148590Y1270
X135890Y1270
X138430Y1270
X140970Y1270
X143510Y1270
X16510Y27178
X19050Y27178
X6350Y27178
X8890Y27178
X11430Y27178
X13970Y27178
X42418Y27178
X44958Y27178
X32258Y27178
X34798Y27178
X37338Y27178
X39878Y27178
X68326Y27178
X70866Y27178
X58166Y27178
X60706Y27178
X63246Y27178
X65786Y27178
X94234Y27178
X96774Y27178
X84074Y27178
X86614Y27178
X89154Y27178
X91694Y27178
X120142Y27178
X122682Y27178
X109982Y27178
X112522Y27178
X115062Y27178
X117602Y27178
X146050Y27178
X148590Y27178
X135890Y27178
X138430Y27178
X140970Y27178
X143510Y27178
X16510Y53086
X19050Y53086
X6350Y53086
X8890Y53086
X11430Y53086
X13970Y53086
X42418Y53086
X44958Y53086
X32258Y53086
X34798Y53086
X37338Y53086
X39878Y53086
X68326Y53086
X70866Y53086
X58166Y53086
X60706Y53086
X63246Y53086
X65786Y53086
X94234Y53086
X96774Y53086
X84074Y53086
X86614Y53086
X89154Y53086
X91694Y53086
X120142Y53086
X122682Y53086
X109982Y53086
X112522Y53086
X115062Y53086
X117602Y53086
X146050Y53086
X148590Y53086
X135890Y53086
X138430Y53086
X140970Y53086
X143510Y53086
X16510Y78994
X19050Y78994
X6350Y78994
X8890Y78994
X11430Y78994
X13970Y78994
X42418Y78994
X44958Y78994
X32258Y78994
X34798Y78994
X37338Y78994
X39878Y78994
X68326Y78994
X70866Y78994
X58166Y78994
X60706Y78994
X63246Y78994
X65786Y78994
X94234Y78994
X96774Y78994
X84074Y78994
X86614Y78994
X89154Y78994
X91694Y78994
X120142Y78994
X122682Y78994
X109982Y78994
X112522Y78994
X115062Y78994
X117602Y78994
X146050Y78994
X148590Y78994
X135890Y78994
X138430Y78994
X140970Y78994
T3
X57658Y48006
X60706Y39116
X70147Y38108
X71196Y35890
X68605Y37795
X68809Y35585
X61900Y43155
X62001Y40564
X59563Y40411
X59588Y43129
X67996Y50394
X59233Y45872
X55474Y40157
X66319Y34569
X65329Y37567
X59436Y34798
X56896Y34798
X61976Y28448
X61976Y32258
X68275Y40335
X61976Y29718
X71831Y33528
X72898Y31090
X73939Y34671
X56871Y31064
X63856Y45263
X67056Y30988
X58369Y48666
X63475Y47650
X69596Y30988
X83566Y48006
X86614Y39116
X96055Y38108
X97104Y35890
X94513Y37795
X94717Y35585
X87808Y43155
X87909Y40564
X85471Y40411
X85496Y43129
X93904Y50394
X85141Y45872
X81382Y40157
X92227Y34569
X91237Y37567
X85344Y34798
X82804Y34798
X87884Y28448
X87884Y32258
X94183Y40335
X87884Y29718
X97739Y33528
X98806Y31090
X99847Y34671
X82779Y31064
X89764Y45263
X92964Y30988
X84277Y48666
X89383Y47650
X95504Y30988
X109474Y48006
X112522Y39116
X121963Y38108
X123012Y35890
X120421Y37795
X120625Y35585
X113716Y43155
X113817Y40564
X111379Y40411
X111404Y43129
X119812Y50394
X111049Y45872
X107290Y40157
X118135Y34569
X117145Y37567
X111252Y34798
X108712Y34798
X113792Y28448
X113792Y32258
X120091Y40335
X113792Y29718
X123647Y33528
X124714Y31090
X125755Y34671
X108687Y31064
X115672Y45263
X118872Y30988
X110185Y48666
X115291Y47650
X121412Y30988
X135382Y48006
X138430Y39116
X147871Y38108
X148920Y35890
X146329Y37795
X146533Y35585
X139624Y43155
X139725Y40564
X137287Y40411
X137312Y43129
X145720Y50394
X136957Y45872
X133198Y40157
X144043Y34569
X143053Y37567
X137160Y34798
X134620Y34798
X139700Y28448
X139700Y32258
X145999Y40335
X139700Y29718
X149555Y33528
X150622Y31090
X151663Y34671
X134595Y31064
X141580Y45263
X144780Y30988
X136093Y48666
X141199Y47650
X147320Y30988
X5842Y73914
X8890Y65024
X18331Y64016
X19380Y61798
X16789Y63703
X16993Y61493
X10084Y69063
X10185Y66472
X7747Y66319
X7772Y69037
X16180Y76302
X7417Y71780
X3658Y66065
X14503Y60477
X13513Y63475
X7620Y60706
X5080Y60706
X10160Y54356
X10160Y58166
X16459Y66243
X10160Y55626
X20015Y59436
X21082Y56998
X22123Y60579
X5055Y56972
X12040Y71171
X15240Y56896
X6553Y74574
X11659Y73558
X17780Y56896
X31750Y73914
X34798Y65024
X44239Y64016
X45288Y61798
X42697Y63703
X42901Y61493
X35992Y69063
X36093Y66472
X33655Y66319
X33680Y69037
X42088Y76302
X33325Y71780
X29566Y66065
X40411Y60477
X39421Y63475
X33528Y60706
X30988Y60706
X36068Y54356
X36068Y58166
X42367Y66243
X36068Y55626
X45923Y59436
X46990Y56998
X48031Y60579
X30963Y56972
X37948Y71171
X41148Y56896
X32461Y74574
X37567Y73558
X43688Y56896
X57658Y73914
X60706Y65024
X70147Y64016
X71196Y61798
X68605Y63703
X68809Y61493
X61900Y69063
X62001Y66472
X59563Y66319
X59588Y69037
X67996Y76302
X59233Y71780
X55474Y66065
X66319Y60477
X65329Y63475
X59436Y60706
X56896Y60706
X61976Y54356
X61976Y58166
X68275Y66243
X61976Y55626
X71831Y59436
X72898Y56998
X73939Y60579
X56871Y56972
X63856Y71171
X67056Y56896
X58369Y74574
X63475Y73558
X69596Y56896
X83566Y73914
X86614Y65024
X96055Y64016
X97104Y61798
X94513Y63703
X94717Y61493
X87808Y69063
X87909Y66472
X85471Y66319
X85496Y69037
X93904Y76302
X85141Y71780
X81382Y66065
X92227Y60477
X91237Y63475
X85344Y60706
X82804Y60706
X87884Y54356
X87884Y58166
X94183Y66243
X87884Y55626
X97739Y59436
X98806Y56998
X99847Y60579
X82779Y56972
X89764Y71171
X92964Y56896
X84277Y74574
X89383Y73558
X95504Y56896
X109474Y22098
X112522Y65024
X121963Y64016
X123012Y61798
X120421Y63703
X120625Y61493
X113716Y69063
X113817Y66472
X111379Y66319
X111404Y69037
X119812Y76302
X111049Y71780
X107290Y66065
X118135Y60477
X117145Y63475
X111252Y60706
X108712Y60706
X113792Y54356
X113792Y58166
X120091Y66243
X113792Y55626
X123647Y59436
X124714Y56998
X125755Y60579
X108687Y56972
X115672Y71171
X118872Y56896
X110185Y74574
X115291Y73558
X121412Y56896
X135382Y73914
X138430Y65024
X147871Y64016
X148920Y61798
X146329Y63703
X146533Y61493
X139624Y69063
X139725Y66472
X137287Y66319
X137312Y69037
X145720Y76302
X136957Y71780
X133198Y66065
X144043Y60477
X143053Y63475
X137160Y60706
X134620Y60706
X139700Y54356
X139700Y58166
X145999Y66243
X139700Y55626
X149555Y59436
X150622Y56998
X151663Y60579
X134595Y56972
X141580Y71171
X144780Y56896
X136093Y74574
X141199Y73558
X147320Y56896
X5842Y99822
X8890Y90932
X18331Y89924
X19380Y87706
X16789Y89611
X16993Y87401
X10084Y94971
X10185Y92380
X7747Y92227
X7772Y94945
X16180Y102210
X7417Y97688
X3658Y91973
X14503Y86385
X13513Y89383
X7620Y86614
X5080Y86614
X10160Y80264
X10160Y84074
X16459Y92151
X10160Y81534
X20015Y85344
X21082Y82906
X22123Y86487
X5055Y82880
X12040Y97079
X15240Y82804
X6553Y100482
X11659Y99466
X17780Y82804
X31750Y99822
X34798Y90932
X44239Y89924
X45288Y87706
X42697Y89611
X42901Y87401
X35992Y94971
X36093Y92380
X33655Y92227
X33680Y94945
X42088Y102210
X33325Y97688
X29566Y91973
X40411Y86385
X39421Y89383
X33528Y86614
X30988Y86614
X36068Y80264
X36068Y84074
X42367Y92151
X36068Y81534
X45923Y85344
X46990Y82906
X48031Y86487
X30963Y82880
X37948Y97079
X41148Y82804
X32461Y100482
X37567Y99466
X43688Y82804
X57658Y99822
X60706Y90932
X70147Y89924
X71196Y87706
X68605Y89611
X68809Y87401
X61900Y94971
X62001Y92380
X59563Y92227
X59588Y94945
X67996Y102210
X59233Y97688
X55474Y91973
X66319Y86385
X65329Y89383
X59436Y86614
X56896Y86614
X61976Y80264
X61976Y84074
X68275Y92151
X61976Y81534
X71831Y85344
X72898Y82906
X73939Y86487
X56871Y82880
X63856Y97079
X67056Y82804
X58369Y100482
X63475Y99466
X69596Y82804
X83566Y99822
X86614Y90932
X96055Y89924
X97104Y87706
X94513Y89611
X94717Y87401
X87808Y94971
X87909Y92380
X85471Y92227
X85496Y94945
X93904Y102210
X85141Y97688
X81382Y91973
X92227Y86385
X91237Y89383
X85344Y86614
X82804Y86614
X87884Y80264
X87884Y84074
X94183Y92151
X87884Y81534
X97739Y85344
X98806Y82906
X99847Y86487
X82779Y82880
X89764Y97079
X92964Y82804
X84277Y100482
X89383Y99466
X95504Y82804
X109474Y99822
X112522Y90932
X121963Y89924
X123012Y87706
X120421Y89611
X120625Y87401
X113716Y94971
X113817Y92380
X111379Y92227
X111404Y94945
X119812Y102210
X111049Y97688
X107290Y91973
X118135Y86385
X117145Y89383
X111252Y86614
X108712Y86614
X113792Y80264
X113792Y84074
X120091Y92151
X113792Y81534
X123647Y85344
X124714Y82906
X125755Y86487
X108687Y82880
X115672Y97079
X118872Y82804
X110185Y100482
X115291Y99466
X121412Y82804
X135382Y99822
X138430Y90932
X147871Y89924
X148920Y87706
X146329Y89611
X146533Y87401
X139624Y94971
X139725Y92380
X137287Y92227
X137312Y94945
X145720Y102210
X136957Y97688
X133198Y91973
X144043Y86385
X143053Y89383
X137160Y86614
X134620Y86614
X139700Y80264
X139700Y84074
X145999Y92151
X139700Y81534
X149555Y85344
X150622Y82906
X151663Y86487
X134595Y82880
X141580Y97079
X144780Y82804
X136093Y100482
X141199Y99466
X5842Y22098
X8890Y13208
X18331Y12200
X19380Y9982
X16789Y11887
X16993Y9677
X10084Y17247
X10185Y14656
X7747Y14503
X7772Y17221
X16180Y24486
X7417Y19964
X3658Y14249
X14503Y8661
X13513Y11659
X7620Y8890
X5080Y8890
X10160Y2540
X10160Y6350
X16459Y14427
X10160Y3810
X20015Y7620
X21082Y5182
X22123Y8763
X5055Y5156
X12040Y19355
X15240Y5080
X6553Y22758
X11659Y21742
X17780Y5080
X31750Y22098
X34798Y13208
X44239Y12200
X45288Y9982
X42697Y11887
X42901Y9677
X35992Y17247
X36093Y14656
X33655Y14503
X33680Y17221
X42088Y24486
X33325Y19964
X29566Y14249
X40411Y8661
X39421Y11659
X33528Y8890
X30988Y8890
X36068Y2540
X36068Y6350
X42367Y14427
X36068Y3810
X45923Y7620
X46990Y5182
X48031Y8763
X30963Y5156
X37948Y19355
X41148Y5080
X32461Y22758
X37567Y21742
X43688Y5080
X57658Y22098
X60706Y13208
X70147Y12200
X71196Y9982
X68605Y11887
X68809Y9677
X61900Y17247
X62001Y14656
X59563Y14503
X59588Y17221
X67996Y24486
X59233Y19964
X55474Y14249
X66319Y8661
X65329Y11659
X59436Y8890
X56896Y8890
X61976Y2540
X61976Y6350
X68275Y14427
X61976Y3810
X71831Y7620
X72898Y5182
X73939Y8763
X56871Y5156
X63856Y19355
X67056Y5080
X58369Y22758
X63475Y21742
X69596Y5080
X83566Y22098
X86614Y13208
X96055Y12200
X97104Y9982
X94513Y11887
X94717Y9677
X87808Y17247
X87909Y14656
X85471Y14503
X85496Y17221
X93904Y24486
X85141Y19964
X81382Y14249
X92227Y8661
X91237Y11659
X85344Y8890
X82804Y8890
X87884Y2540
X87884Y6350
X94183Y14427
X87884Y3810
X97739Y7620
X98806Y5182
X99847Y8763
X82779Y5156
X89764Y19355
X92964Y5080
X84277Y22758
X89383Y21742
X95504Y5080
X109474Y73914
X112522Y13208
X121963Y12200
X123012Y9982
X120421Y11887
X120625Y9677
X113716Y17247
X113817Y14656
X111379Y14503
X111404Y17221
X119812Y24486
X111049Y19964
X107290Y14249
X118135Y8661
X117145Y11659
X111252Y8890
X108712Y8890
X113792Y2540
X113792Y6350
X120091Y14427
X113792Y3810
X123647Y7620
X124714Y5182
X125755Y8763
X108687Y5156
X115672Y19355
X118872Y5080
X110185Y22758
X115291Y21742
X121412Y5080
X135382Y22098
X138430Y13208
X147871Y12200
X148920Y9982
X146329Y11887
X146533Y9677
X139624Y17247
X139725Y14656
X137287Y14503
X137312Y17221
X145720Y24486
X136957Y19964
X133198Y14249
X144043Y8661
X143053Y11659
X137160Y8890
X134620Y8890
X139700Y2540
X139700Y6350
X145999Y14427
X139700Y3810
X149555Y7620
X150622Y5182
X151663Y8763
X134595Y5156
X141580Y19355
X144780Y5080
X136093Y22758
X141199Y21742
X147320Y5080
X5842Y48006
X8890Y39116
X18331Y38108
X19380Y35890
X16789Y37795
X16993Y35585
X10084Y43155
X10185Y40564
X7747Y40411
X7772Y43129
X16180Y50394
X7417Y45872
X3658Y40157
X14503Y34569
X13513Y37567
X7620Y34798
X5080Y34798
X10160Y28448
X10160Y32258
X16459Y40335
X10160Y29718
X20015Y33528
X21082Y31090
X22123Y34671
X5055Y31064
X12040Y45263
X15240Y30988
X6553Y48666
X11659Y47650
X17780Y30988
X31750Y48006
X34798Y39116
X44239Y38108
X45288Y35890
X42697Y37795
X42901Y35585
X35992Y43155
X36093Y40564
X33655Y40411
X33680Y43129
X42088Y50394
X33325Y45872
X29566Y40157
X40411Y34569
X39421Y37567
X33528Y34798
X30988Y34798
X36068Y28448
X36068Y32258
X42367Y40335
X36068Y29718
X45923Y33528
X46990Y31090
X48031Y34671
X30963Y31064
X37948Y45263
X41148Y30988
X32461Y48666
X37567Y47650
X43688Y30988
X147320Y82804
M30